<?xml version="1.0" encoding="utf-8"?>
<!-- Generator: Adobe Illustrator 22.1.0, SVG Export Plug-In . SVG Version: 6.00 Build 0)  -->
<svg version="1.1" id="Layer_1" xmlns="http://www.w3.org/2000/svg" xmlns:xlink="http://www.w3.org/1999/xlink" x="0px" y="0px"
	 viewBox="0 0 175 88" style="enable-background:new 0 0 175 88;" xml:space="preserve">
<style type="text/css">
	.st0{fill:#CCCCCC;}
	.st1{fill:#FBB03B;}
	.st2{fill:#666666;}
	.st3{fill:#999999;}
	.st4{fill:#FFFF00;}
	.st5{fill:#FFFFFF;}
	.st6{display:none;fill:none;stroke:#000000;stroke-miterlimit:10;}
	.st7{display:none;stroke:#000000;stroke-miterlimit:10;enable-background:new    ;}
	.st8{font-family:'ArialMT';}
	.st9{font-size:7px;}
	.st10{fill:#FFFFFF;stroke:#000000;stroke-miterlimit:10;}
	.st11{fill:#FBB03B;stroke:#000000;stroke-miterlimit:10;}
	.st12{fill:none;stroke:#000000;stroke-miterlimit:10;}
	.st13{display:none;}
	.st14{display:inline;fill:none;}
	.st15{display:inline;}
	.st16{font-size:25px;}
</style>
<g id="Layer_4">
	<rect x="23" y="0.8" class="st0" width="86.1" height="87.3"/>
</g>
<g id="Layer_5">
	<rect x="66.1" y="1.3" class="st1" width="20.7" height="86.1"/>
</g>
<g id="Layer_1_1_">
	<g>
		<rect x="89.5" y="47.5" class="st2" width="17.7" height="17.5"/>
		<path class="st3" d="M106.7,48v16.5H90V48H106.7 M107.7,47H89v18.5h18.7V47L107.7,47z"/>
	</g>
	<g>
		<rect x="111.3" y="47.5" class="st2" width="17.7" height="17.5"/>
		<path class="st3" d="M128.5,48v16.5h-16.7V48H128.5 M129.5,47h-18.7v18.5h18.7V47L129.5,47z"/>
	</g>
	<g>
		<rect x="89.5" y="68" class="st4" width="17.7" height="17.5"/>
		<path class="st3" d="M106.7,68.5V85H90V68.5H106.7 M107.7,67.5H89V86h18.7V67.5L107.7,67.5z"/>
	</g>
	<g>
		<rect x="111.3" y="68" class="st2" width="17.7" height="17.5"/>
		<path class="st3" d="M128.5,68.5V85h-16.7V68.5H128.5 M129.5,67.5h-18.7V86h18.7V67.5L129.5,67.5z"/>
	</g>
	<g>
		<rect x="133" y="47.5" class="st2" width="17.7" height="17.5"/>
		<path class="st3" d="M150.2,48v16.5h-16.7V48H150.2 M151.2,47h-18.7v18.5h18.7V47L151.2,47z"/>
	</g>
	<g>
		<rect x="133" y="68" class="st4" width="17.7" height="17.5"/>
		<path class="st3" d="M150.2,68.5V85h-16.7V68.5H150.2 M151.2,67.5h-18.7V86h18.7V67.5L151.2,67.5z"/>
	</g>
	<g>
		<rect x="154.8" y="47.5" class="st4" width="17.7" height="17.5"/>
		<path class="st3" d="M172,48v16.5h-16.7V48H172 M173,47h-18.7v18.5H173V47L173,47z"/>
	</g>
	<g>
		<rect x="154.8" y="68" class="st2" width="17.7" height="17.5"/>
		<path class="st3" d="M172,68.5V85h-16.7V68.5H172 M173,67.5h-18.7V86H173V67.5L173,67.5z"/>
	</g>
	<g>
		<rect x="24.3" y="47.5" class="st2" width="17.7" height="17.5"/>
		<path class="st3" d="M41.5,48v16.5H24.8V48H41.5 M42.5,47H23.8v18.5h18.7V47L42.5,47z"/>
	</g>
	<g>
		<rect x="24.3" y="68" class="st2" width="17.7" height="17.5"/>
		<path class="st3" d="M41.5,68.5V85H24.8V68.5H41.5 M42.5,67.5H23.8V86h18.7V67.5L42.5,67.5z"/>
	</g>
	<g>
		<rect x="46" y="47.5" class="st2" width="17.7" height="17.5"/>
		<path class="st3" d="M63.2,48v16.5H46.5V48H63.2 M64.2,47H45.5v18.5h18.7V47L64.2,47z"/>
	</g>
	<g>
		<rect x="46" y="68" class="st4" width="17.7" height="17.5"/>
		<path class="st3" d="M63.2,68.5V85H46.5V68.5H63.2 M64.2,67.5H45.5V86h18.7V67.5L64.2,67.5z"/>
	</g>
	<g>
		<rect x="67.8" y="47.5" class="st4" width="17.7" height="17.5"/>
		<path class="st3" d="M85,48v16.5H68.3V48H85 M86,47H67.3v18.5H86V47L86,47z"/>
	</g>
	<g>
		<rect x="67.8" y="68" class="st2" width="17.7" height="17.5"/>
		<path class="st3" d="M85,68.5V85H68.3V68.5H85 M86,67.5H67.3V86H86V67.5L86,67.5z"/>
	</g>
	<g>
		<rect x="89.5" y="27" class="st2" width="17.7" height="17.5"/>
		<path class="st3" d="M106.7,27.5V44H90V27.5H106.7 M107.7,26.5H89V45h18.7V26.5L107.7,26.5z"/>
	</g>
	<g>
		<rect x="111.3" y="27" class="st4" width="17.7" height="17.5"/>
		<path class="st3" d="M128.5,27.5V44h-16.7V27.5H128.5 M129.5,26.5h-18.7V45h18.7V26.5L129.5,26.5z"/>
	</g>
	<g>
		<rect x="133" y="27" class="st2" width="17.7" height="17.5"/>
		<path class="st3" d="M150.2,27.5V44h-16.7V27.5H150.2 M151.2,26.5h-18.7V45h18.7V26.5L151.2,26.5z"/>
	</g>
	<g>
		<rect x="154.8" y="27" class="st2" width="17.7" height="17.5"/>
		<path class="st3" d="M172,27.5V44h-16.7V27.5H172 M173,26.5h-18.7V45H173V26.5L173,26.5z"/>
	</g>
	<g>
		<rect x="24.3" y="27" class="st4" width="17.7" height="17.5"/>
		<path class="st3" d="M41.5,27.5V44H24.8V27.5H41.5 M42.5,26.5H23.8V45h18.7V26.5L42.5,26.5z"/>
	</g>
	<g>
		<rect x="46" y="27" class="st2" width="17.7" height="17.5"/>
		<path class="st3" d="M63.2,27.5V44H46.5V27.5H63.2 M64.2,26.5H45.5V45h18.7V26.5L64.2,26.5z"/>
	</g>
	<g>
		<rect x="67.8" y="27" class="st2" width="17.7" height="17.5"/>
		<path class="st3" d="M85,27.5V44H68.3V27.5H85 M86,26.5H67.3V45H86V26.5L86,26.5z"/>
	</g>
	<g>
		<rect x="0.5" y="27" class="st5" width="22" height="17.5"/>
		<path class="st3" d="M22,27.5V44H1V27.5H22 M23,26.5H0V45h23V26.5L23,26.5z"/>
	</g>
	<g>
		<rect x="0.5" y="47.5" class="st5" width="22" height="17.5"/>
		<path class="st3" d="M22,48v16.5H1V48H22 M23,47H0v18.5h23V47L23,47z"/>
	</g>
	<g>
		<rect x="0.5" y="68" class="st5" width="22" height="17.5"/>
		<path class="st3" d="M22,68.5V85H1V68.5H22 M23,67.5H0V86h23V67.5L23,67.5z"/>
	</g>
</g>
<g id="Layer_3">
	<rect x="5.5" y="32.5" class="st6" width="14.3" height="9.3"/>
	<rect x="3.3" y="52.6" class="st6" width="16.5" height="9.1"/>
	<text transform="matrix(1 0 0 1 3.3125 57.5947)" class="st7 st8 st9">Snare</text>
	<rect x="2.4" y="70.9" class="st6" width="20" height="11.6"/>
	<text transform="matrix(1 0 0 1 2.4375 75.9072)" class="st7 st8 st9">Hi-Hat</text>
	<rect x="23.8" y="1.8" class="st10" width="18.7" height="20.8"/>
	<rect x="45.5" y="1.8" class="st10" width="18.7" height="20.8"/>
	<rect x="67.3" y="1.8" class="st11" width="18.7" height="20.8"/>
	<rect x="89" y="1.8" class="st10" width="18.7" height="20.8"/>
	<rect x="110.7" y="1.8" class="st10" width="18.7" height="20.8"/>
	<rect x="132.4" y="1.8" class="st10" width="18.7" height="20.8"/>
	<rect x="154.2" y="1.8" class="st10" width="18.7" height="20.8"/>
	<rect x="45.5" y="1.8" class="st12" width="18.7" height="20.8"/>
</g>
<g id="Layer_2_1_" class="st13">
	<rect x="23.8" y="1.8" class="st14" width="18.7" height="20.8"/>
	<text transform="matrix(1 0 0 1 23.7593 19.5)" class="st15 st8 st16">1</text>
	<rect x="45.5" y="1.8" class="st14" width="18.7" height="20.8"/>
	<text transform="matrix(1 0 0 1 45.5181 19.5)" class="st15 st8 st16">2</text>
	<rect x="67.4" y="2.1" class="st14" width="18.6" height="20.4"/>
	<text transform="matrix(1 0 0 1 67.375 19.875)" class="st15 st8 st16">3</text>
	<rect x="89.3" y="1.9" class="st14" width="18.5" height="20.6"/>
	<text transform="matrix(1 0 0 1 89.25 19.625)" class="st15 st8 st16">4</text>
	<rect x="110.9" y="2" class="st14" width="18.5" height="20.5"/>
	<text transform="matrix(1 0 0 1 110.875 19.75)" class="st15 st8 st16">5</text>
	<rect x="132.8" y="2.1" class="st14" width="18.4" height="20.4"/>
	<text transform="matrix(1 0 0 1 132.75 19.875)" class="st15 st8 st16">6</text>
	<rect x="154.5" y="1.9" class="st14" width="18.4" height="20.6"/>
	<text transform="matrix(1 0 0 1 154.5 19.625)" class="st15 st8 st16">7</text>
</g>
</svg>
